<?xml version="1.0" encoding="utf-8"?>
<!-- Generator: Adobe Illustrator 19.0.0, SVG Export Plug-In . SVG Version: 6.00 Build 0)  -->
<svg version="1.1" id="Layer_1" xmlns="http://www.w3.org/2000/svg" xmlns:xlink="http://www.w3.org/1999/xlink" x="0px" y="0px"
	 viewBox="-147 270.9 300 300" style="enable-background:new -147 270.9 300 300;" xml:space="preserve">
<style type="text/css">
	.st0{fill:#FFFFFF;}
</style>
<g>
	<g>
		<path class="st0" d="M3,270.9c-82.8,0-150,67.2-150,150s67.2,150,150,150s150-67.2,150-150S85.8,270.9,3,270.9z M75,404.5
			l-98.6,98.6l0,0c0,0-0.1,0.1-0.1,0.1l-0.6,0.6l0,0c-5.6,5.2-12.8,7.8-20.2,7.8c-8.9,0-18.1-3.6-25.3-10.8
			c-6.3-6.3-10.2-14.5-10.7-23.1c-0.6-8.4,2.1-16.2,7.5-22.1l-0.1-0.1L24.3,358c8.2-8.2,22.2-7.6,31.2,1.3c4.2,4.2,6.7,9.7,7.1,15.3
			c0.4,6-1.7,11.8-5.8,15.8l-79.3,79.3l-11-11l79.3-79.3c1.2-1.2,1.3-2.7,1.2-3.8c-0.1-1.9-1.1-3.9-2.6-5.4c-2.9-2.9-7-3.5-9.2-1.3
			l-96.5,96.5l0,0c-2.8,2.8-4.2,6.7-3.9,11.1c0.3,4.8,2.5,9.4,6.2,13.1c7.3,7.3,18.1,8.4,24.2,2.4L64,393.5
			c4.6-4.6,6.9-11.1,6.4-18.2c-0.5-7.5-3.9-14.8-9.7-20.6c-11.6-11.6-29-13.1-38.8-3.3L-59.6,433l-11-11l81.6-81.6
			c15.8-15.8,43.1-14.4,60.8,3.3c8.4,8.4,13.5,19.3,14.2,30.6C86.7,385.9,82.8,396.7,75,404.5z"/>
	</g>
</g>
</svg>
