<?xml version="1.0" encoding="utf-8"?>
<!-- Generator: Adobe Illustrator 19.0.0, SVG Export Plug-In . SVG Version: 6.00 Build 0)  -->
<svg version="1.1" id="Capa_1" xmlns="http://www.w3.org/2000/svg" xmlns:xlink="http://www.w3.org/1999/xlink" x="0px" y="0px"
	 viewBox="8 114.9 612 612" style="enable-background:new 8 114.9 612 612;" xml:space="preserve">
<style type="text/css">
	.st0{fill:#FFFFFF;}
</style>
<g>
	<g>
		<path class="st0" d="M314,726.9c-28.2,0-55.3-3.7-81.4-11c-26.1-7.3-50.5-17.6-73.1-30.9s-43.2-29.2-61.8-47.7
			c-18.6-18.6-34.5-39.2-47.7-61.8c-13.3-22.6-23.6-47-30.9-73.1C11.7,476.2,8,449,8,420.9s3.7-55.3,11-81.4s17.6-50.5,30.9-73.1
			c13.3-22.6,29.2-43.2,47.7-61.8s39.2-34.5,61.8-47.7c22.6-13.3,47-23.6,73.1-30.9c26.1-7.3,53.2-11,81.4-11
			c42,0,81.7,8.1,119,24.2s69.8,37.9,97.3,65.5s49.4,60,65.5,97.3s24.2,77,24.2,119c0,28.2-3.7,55.3-11,81.4
			c-7.3,26.1-17.6,50.5-30.9,73.1c-13.3,22.6-29.2,43.2-47.7,61.8c-18.6,18.6-39.2,34.5-61.8,47.7c-22.6,13.3-47,23.6-73.1,30.9
			C369.3,723.2,342.2,726.9,314,726.9z M461.5,294.8H171.4c-2.9,0-5.3,0.9-7.3,2.8s-3.1,4.4-3.1,7.6v32.4c0,1.6,0.6,2.4,1.8,2.4
			L315.2,427l1.2,0.6c0.8,0,1.4-0.2,1.8-0.6l147.5-86.9c0.8-0.4,1.4-0.6,1.8-0.6c0.4,0,1-0.2,1.8-0.6c1.6,0,2.4-0.8,2.4-2.4v-31.2
			c0-3.3-1-5.8-3.1-7.6S464.3,294.8,461.5,294.8z M253.4,425.2c0.4-0.4,0.6-1,0.6-1.8c0-1.2-0.4-1.8-1.2-1.8l-87.5-50.2
			c-1.2-0.4-2.2-0.4-3.1,0c-0.8,0-1.2,0.6-1.2,1.8v131.6c0,1.2,0.6,2,1.8,2.4h1.2c0.8,0,1.2-0.2,1.2-0.6L253.4,425.2z M359.9,435
			c-0.4-1.2-1.4-1.4-3.1-0.6l-33.7,19.6c-4.1,2.4-8.4,2.4-12.9,0l-29.4-16.5c-1.2-0.8-2.2-0.8-3.1,0l-112,104
			c-0.4,0.4-0.6,1.2-0.6,2.4c0,0.4,0.4,1,1.2,1.8c2.4,0.8,4.1,1.2,4.9,1.2h287c0.8,0,1.6-0.4,2.4-1.2c0-1.6-0.2-2.6-0.6-3.1
			L359.9,435z M470.1,368.9h-2.4l-83.2,49.6c-0.8,0-1.2,0.6-1.2,1.8c-0.4,0.4-0.2,1,0.6,1.8l83.2,90c0.8,0.8,1.4,1.2,1.8,1.2h1.2
			c1.2-1.2,1.8-2,1.8-2.4V371.3C471.9,370.5,471.3,369.7,470.1,368.9z"/>
	</g>
</g>
</svg>
