<?xml version="1.0" encoding="utf-8"?>
<!-- Generator: Adobe Illustrator 16.0.0, SVG Export Plug-In . SVG Version: 6.00 Build 0)  -->
<!DOCTYPE svg PUBLIC "-//W3C//DTD SVG 1.1//EN" "http://www.w3.org/Graphics/SVG/1.1/DTD/svg11.dtd">
<svg version="1.1" id="Layer_1" xmlns="http://www.w3.org/2000/svg" xmlns:xlink="http://www.w3.org/1999/xlink" x="0px" y="0px"
	 width="512px" height="512px" viewBox="0 0 512 512" enable-background="new 0 0 512 512" xml:space="preserve">
<path fill="#186193" d="M268.301,28.48C246.234,50.547,237,80.57,240.563,109.313c0.711,5.734,5.191,10.215,10.926,10.926
	c28.742,3.563,58.766-5.672,80.832-27.738s31.301-52.09,27.738-80.832c-0.711-5.734-5.191-10.215-10.926-10.926
	C320.391-2.816,290.367,6.414,268.301,28.48z"/>
<path fill="#00223E" d="M244.145,116.66c1.926,1.926,4.477,3.223,7.344,3.578c28.742,3.563,58.766-5.668,80.832-27.738
	c22.07-22.066,31.301-52.09,27.738-80.832c-0.355-2.867-1.652-5.418-3.578-7.344L244.145,116.66z"/>
<path fill="#186193" d="M165.461,125.777c22.066,22.066,52.09,31.301,80.832,27.734c5.734-0.711,10.215-5.188,10.922-10.922
	c3.563-28.742-5.668-58.766-27.734-80.832s-52.09-31.301-80.832-27.738c-5.734,0.711-10.215,5.191-10.926,10.926
	C134.16,73.688,143.395,103.711,165.461,125.777z"/>
<path fill="#00223E" d="M253.637,149.934c1.926-1.926,3.223-4.477,3.582-7.344c3.563-28.746-5.672-58.766-27.738-80.836
	c-22.066-22.066-52.09-31.297-80.832-27.734c-2.867,0.355-5.422,1.652-7.348,3.578L253.637,149.934z"/>
<path fill="#FFA17F" d="M311.598,132.234c0-17.973-14.676-32.543-32.777-32.543c-18.105,0-32.781,14.57-32.781,32.543
	c0,17.969,14.676,32.539,32.781,32.539C296.922,164.773,311.598,150.203,311.598,132.234z"/>
<path fill="#E8653D" d="M311.598,132.234c0,17.969-14.676,32.539-32.777,32.539V99.691
	C296.922,99.691,311.598,114.262,311.598,132.234z"/>
<path fill="#186193" d="M130.109,128.094H15c-8.285,0-15,6.719-15,15c0,8.285,6.715,15,15,15h115.109c8.285,0,15-6.715,15-15
	C145.109,134.813,138.395,128.094,130.109,128.094z"/>
<path fill="#186193" d="M497,128.094H381.598c-8.285,0-15,6.719-15,15c0,8.285,6.715,15,15,15H497c8.285,0,15-6.715,15-15
	C512,134.813,505.285,128.094,497,128.094z"/>
<path fill="#186193" d="M265.105,244.289c-2.418-5.406-7.781-8.883-13.699-8.883c-0.031,0-0.066,0-0.102,0
	c-5.953,0.043-11.32,3.602-13.676,9.07l-35.762,83.102c-3.277,7.609,0.238,16.434,7.848,19.707c1.934,0.832,3.945,1.227,5.922,1.227
	c5.813,0,11.344-3.398,13.785-9.074l1.914-4.445h41.418l2.07,4.633c3.379,7.566,12.246,10.957,19.813,7.582
	c7.563-3.379,10.957-12.25,7.582-19.813L265.105,244.289z M244.246,304.992l7.414-17.23l7.695,17.23H244.246z"/>
<path fill="#00223E" d="M302.215,327.391l-37.113-83.102c-2.414-5.406-7.781-8.883-13.695-8.883c-0.035,0-0.066,0-0.102,0
	c0.102,0,0.355,52.355,0.355,52.355l7.695,17.23h-7.277v30h20.676l2.066,4.633c3.379,7.566,12.25,10.957,19.816,7.582
	C302.199,343.828,305.594,334.957,302.215,327.391z"/>
<path fill="#186193" d="M177.176,235.078c-8.281,0-15,6.715-15,15v36.617h-31.344v-36.617c0-8.285-6.715-15-15-15
	c-8.281,0-15,6.715-15,15v83.43c0,8.285,6.719,15,15,15c8.285,0,15-6.715,15-15v-16.813h31.344v16.813c0,8.285,6.719,15,15,15
	c8.285,0,15-6.715,15-15v-83.43C192.176,241.793,185.461,235.078,177.176,235.078z"/>
<path fill="#00223E" d="M390.121,234.461c-8.281,0-15,6.715-15,15v40.68l-39.234-49.945c-3.949-5.027-10.652-7-16.699-4.91
	c-6.043,2.09-10.098,7.781-10.098,14.176v84.055c0,8.285,6.719,15,15,15c8.285,0,15-6.715,15-15v-40.68l39.238,49.945
	c2.898,3.691,7.281,5.734,11.797,5.734c1.637,0,3.293-0.27,4.898-0.824c6.047-2.09,10.098-7.781,10.098-14.176v-84.055
	C405.121,241.176,398.406,234.461,390.121,234.461z"/>
<path fill="#00223E" d="M510.195,326.68l-23.227-53.055l16.285-11.316c6.797-4.727,8.484-14.063,3.77-20.863
	s-14.051-8.496-20.859-3.793l-26.445,18.281c-0.445,0.309-0.867,0.637-1.27,0.984l-10.184,7.074v-14.348c0-8.285-6.715-15-15-15
	s-15,6.715-15,15v83.43c0,8.277,6.707,14.992,14.984,15h0.016c8.273,0,14.984-6.699,15-14.969l0.066-32.625l13.527-9.402
	l20.852,47.633c3.324,7.586,12.168,11.047,19.758,7.727C510.059,343.113,513.516,334.27,510.195,326.68z"/>
<path fill="#186193" d="M195.156,389.988c-6.633-4.969-16.031-3.621-21,3.008l-20.305,27.086l-20.301-27.086
	c-4.969-6.629-14.371-7.977-21-3.008s-7.977,14.371-3.008,21l29.309,39.102v35.832c0,8.285,6.715,15,15,15s15-6.715,15-15v-35.828
	l29.309-39.105C203.129,404.359,201.785,394.957,195.156,389.988z"/>
<path fill="#186193" d="M253.492,386.375c-12.738-0.098-25.102,4.82-33.906,13.543c-8.352,8.277-12.953,19.188-12.953,30.723v26.16
	c0,24.492,20.898,44.609,46.582,44.848h0.441c12.59,0,24.766-4.922,33.469-13.547c8.352-8.273,12.949-19.184,12.949-30.723v-26.156
	C300.078,406.73,279.18,386.609,253.492,386.375z M270.078,457.379c0,4.449-2.211,7.574-4.066,9.414
	c-3.121,3.09-7.613,4.855-12.348,4.855c-0.059,0-0.113,0-0.172,0c-9.297-0.086-16.859-6.746-16.859-14.848v-26.16
	c0-4.449,2.211-7.574,4.066-9.41c3.121-3.094,7.613-4.859,12.344-4.859c0.059,0,0.117,0,0.176,0.004
	c9.297,0.082,16.859,6.746,16.859,14.848V457.379z"/>
<path fill="#00223E" d="M253.492,386.375l-0.449,29.996c0.059,0,0.117,0,0.176,0.004c9.297,0.082,16.859,6.746,16.859,14.848v26.156
	c0,4.449-2.211,7.574-4.066,9.414c-3.121,3.09-7.613,4.855-12.348,4.855c-0.059,0-0.113,0-0.172,0l-0.273,30h0.438
	c12.59,0,24.77-4.922,33.469-13.547c8.352-8.273,12.949-19.184,12.953-30.723v-26.156
	C300.078,406.73,279.18,386.609,253.492,386.375z"/>
<path fill="#00223E" d="M392.453,386.555c-8.285,0-15,6.719-15,15v55.824c0,4.449-2.211,7.574-4.066,9.414
	c-3.16,3.129-7.719,4.867-12.52,4.855c-9.297-0.086-16.859-6.746-16.859-14.848v-55.824c0-8.285-6.715-15-15-15
	c-8.281,0-15,6.715-15,15v55.824c0,24.492,20.898,44.613,46.586,44.848h0.441c12.586,0,24.766-4.922,33.469-13.547
	c8.348-8.273,12.949-19.184,12.949-30.719v-55.824C407.453,393.273,400.738,386.555,392.453,386.555z"/>
<path fill="#FFA17F" d="M267.613,167.988c0-24.141-19.711-43.711-44.031-43.711s-44.031,19.57-44.031,43.711
	c0,24.145,19.711,43.715,44.031,43.715S267.613,192.133,267.613,167.988z"/>
<path fill="#E8653D" d="M267.613,167.988c0,24.145-19.711,43.715-44.031,43.715v-87.426
	C247.898,124.277,267.613,143.848,267.613,167.988z"/>
<path fill="#186193" d="M77.121,234.582H16.129c-8.281,0-15,6.715-15,15c0,8.281,6.719,15,15,15h15.496v68.926
	c0,8.285,6.715,15,15,15s15-6.715,15-15v-68.926h15.496c8.285,0,15-6.719,15-15C92.121,241.297,85.406,234.582,77.121,234.582z"/>
</svg>
